<?xml version="1.0" encoding="UTF-8"?>
<svg id="Layer_1" xmlns="http://www.w3.org/2000/svg" width="1600" height="600" version="1.1" viewBox="0 0 1600 600">
  <!-- Generator: Adobe Illustrator 29.7.1, SVG Export Plug-In . SVG Version: 2.1.1 Build 8)  -->
  <defs>
    <style>
      .st0 {
        fill: #9fb2de;
      }

      .st1, .st2, .st3 {
        stroke-width: 2px;
      }

      .st1, .st4, .st5 {
        fill: #1b2133;
      }

      .st1, .st4, .st5, .st3 {
        stroke: #33406b;
      }

      .st6 {
        isolation: isolate;
      }

      .st2 {
        stroke: #2a3350;
      }

      .st2, .st3 {
        fill: #0f1423;
      }

      .st4 {
        stroke-miterlimit: 4;
        stroke-width: 2px;
      }

      .st5 {
        stroke-miterlimit: 4;
        stroke-width: 2px;
      }
    </style>
  </defs>
  <rect id="board" class="st2" x="10" y="10" width="1580" height="580" rx="28" ry="28"/>
  <g class="st6">
    <g class="st6">
      <path class="st0" d="M80.329,33.96v-8.59h1.137v7.576h4.23v1.014h-5.367Z"/>
      <path class="st0" d="M86.704,29.776c0-1.426.383-2.542,1.148-3.349s1.754-1.21,2.965-1.21c.793,0,1.508.189,2.145.568s1.122.907,1.456,1.585.501,1.446.501,2.306c0,.871-.176,1.65-.527,2.338-.351.688-.85,1.208-1.494,1.562s-1.34.53-2.086.53c-.809,0-1.531-.195-2.168-.586s-1.119-.924-1.447-1.6-.492-1.391-.492-2.145h0ZM87.876,29.794c0,1.035.278,1.851.835,2.446s1.255.894,2.095.894c.855,0,1.56-.301,2.112-.902s.829-1.455.829-2.561c0-.699-.118-1.31-.354-1.831s-.582-.926-1.037-1.213-.966-.431-1.532-.431c-.805,0-1.497.276-2.077.829s-.87,1.476-.87,2.769h0Z"/>
      <path class="st0" d="M96.038,29.776c0-1.426.383-2.542,1.148-3.349s1.754-1.21,2.965-1.21c.793,0,1.508.189,2.145.568s1.122.907,1.456,1.585.501,1.446.501,2.306c0,.871-.176,1.65-.527,2.338-.351.688-.85,1.208-1.494,1.562s-1.34.53-2.086.53c-.809,0-1.531-.195-2.168-.586s-1.119-.924-1.447-1.6-.492-1.391-.492-2.145h0ZM97.21,29.794c0,1.035.278,1.851.835,2.446s1.255.894,2.095.894c.855,0,1.56-.301,2.112-.902s.829-1.455.829-2.561c0-.699-.118-1.31-.354-1.831s-.582-.926-1.037-1.213-.966-.431-1.532-.431c-.805,0-1.497.276-2.077.829s-.87,1.476-.87,2.769h0Z"/>
      <path class="st0" d="M105.718,33.96v-8.59h3.24c.57,0,1.006.027,1.307.082.422.07.775.204,1.061.401s.515.474.688.829.261.746.261,1.172c0,.73-.232,1.349-.697,1.854s-1.305.759-2.52.759h-2.203v3.492h-1.137ZM106.854,29.454h2.221c.734,0,1.256-.137,1.564-.41s.463-.658.463-1.154c0-.359-.091-.667-.272-.923s-.421-.425-.718-.507c-.191-.051-.545-.076-1.061-.076h-2.197v3.07Z"/>
    </g>
  </g>
  <g class="st6">
    <g class="st6">
      <path class="st0" d="M112.14,34.106l2.49-8.883h.844l-2.484,8.883h-.85Z"/>
    </g>
  </g>
  <g class="st6">
    <g class="st6">
      <path class="st0" d="M121.241,33.96v-8.59h1.711l2.033,6.082c.188.566.324.99.41,1.271.098-.312.25-.771.457-1.377l2.057-5.977h1.529v8.59h-1.096v-7.189l-2.496,7.189h-1.025l-2.484-7.312v7.312h-1.096Z"/>
      <path class="st0" d="M131.295,33.96v-8.59h6.211v1.014h-5.074v2.631h4.752v1.008h-4.752v2.924h5.273v1.014h-6.41,0Z"/>
      <path class="st0" d="M139.241,33.96v-8.59h1.711l2.033,6.082c.188.566.324.99.41,1.271.098-.312.25-.771.457-1.377l2.057-5.977h1.529v8.59h-1.096v-7.189l-2.496,7.189h-1.025l-2.484-7.312v7.312h-1.096Z"/>
      <path class="st0" d="M148.926,29.776c0-1.426.383-2.542,1.148-3.349s1.754-1.21,2.965-1.21c.793,0,1.508.189,2.145.568s1.122.907,1.456,1.585.501,1.446.501,2.306c0,.871-.176,1.65-.527,2.338-.351.688-.85,1.208-1.494,1.562s-1.34.53-2.086.53c-.809,0-1.531-.195-2.168-.586s-1.119-.924-1.447-1.6-.492-1.391-.492-2.145h0ZM150.098,29.794c0,1.035.278,1.851.835,2.446s1.255.894,2.095.894c.855,0,1.56-.301,2.112-.902s.829-1.455.829-2.561c0-.699-.118-1.31-.354-1.831s-.582-.926-1.037-1.213-.966-.431-1.532-.431c-.805,0-1.497.276-2.077.829s-.87,1.476-.87,2.769c0,0-.001,0-.001,0Z"/>
      <path class="st0" d="M158.624,33.96v-8.59h3.809c.766,0,1.348.077,1.746.231s.717.427.955.817.357.822.357,1.295c0,.609-.197,1.123-.592,1.541s-1.004.684-1.828.797c.301.145.529.287.686.428.332.305.646.686.943,1.143l1.494,2.338h-1.43l-1.137-1.787c-.332-.516-.605-.91-.82-1.184s-.407-.465-.577-.574-.343-.186-.519-.229c-.129-.027-.34-.041-.633-.041h-1.318v3.814h-1.137,0ZM159.76,29.161h2.443c.52,0,.926-.054,1.219-.161s.516-.279.668-.516.229-.493.229-.771c0-.406-.147-.74-.442-1.002s-.761-.393-1.397-.393h-2.719v2.842h0Z"/>
      <path class="st0" d="M169.475,33.96v-3.639l-3.311-4.951h1.383l1.693,2.59c.312.484.604.969.873,1.453.258-.449.57-.955.938-1.518l1.664-2.525h1.324l-3.428,4.951v3.639h-1.137,0Z"/>
    </g>
  </g>
  <circle id="out_x5F_loop_x5F_L" class="st1" cx="176" cy="60" r="12"/>
  <g class="st6">
    <g class="st6">
      <path class="st0" d="M303.526,32.002l1.025-.141c.027.656.15,1.105.369,1.348s.521.363.908.363c.285,0,.531-.065.738-.196s.35-.309.428-.533.117-.583.117-1.075v-5.918h1.137v5.854c0,.719-.087,1.275-.261,1.67s-.449.695-.826.902-.819.311-1.327.311c-.754,0-1.331-.217-1.731-.65s-.593-1.078-.577-1.934h0Z"/>
      <path class="st0" d="M309.76,30.256c0-1.426.383-2.542,1.148-3.349s1.754-1.21,2.965-1.21c.793,0,1.508.189,2.145.568s1.122.907,1.456,1.585.501,1.446.501,2.306c0,.871-.176,1.65-.527,2.338-.351.688-.85,1.208-1.494,1.562s-1.34.53-2.086.53c-.809,0-1.531-.195-2.168-.586s-1.119-.924-1.447-1.6-.492-1.391-.492-2.145h-.001ZM310.932,30.274c0,1.035.278,1.851.835,2.446s1.255.894,2.095.894c.855,0,1.56-.301,2.112-.902s.829-1.455.829-2.561c0-.699-.118-1.31-.354-1.831s-.582-.926-1.037-1.213-.966-.431-1.532-.431c-.805,0-1.497.276-2.077.829s-.87,1.476-.87,2.769c0,0-.001,0-.001,0Z"/>
      <path class="st0" d="M323.459,31.071v-1.008l3.639-.006v3.188c-.559.445-1.135.78-1.729,1.005s-1.203.337-1.828.337c-.844,0-1.61-.181-2.3-.542s-1.21-.884-1.562-1.567-.527-1.447-.527-2.291c0-.836.175-1.616.524-2.341s.853-1.263,1.509-1.614,1.412-.527,2.268-.527c.621,0,1.183.101,1.685.302s.896.481,1.181.841.502.828.65,1.406l-1.025.281c-.129-.438-.289-.781-.48-1.031s-.465-.45-.82-.601-.75-.226-1.184-.226c-.52,0-.969.079-1.348.237s-.685.366-.917.624-.413.541-.542.85c-.219.531-.328,1.107-.328,1.729,0,.766.132,1.406.396,1.922.264.516.647.898,1.151,1.148s1.039.375,1.605.375c.492,0,.973-.095,1.441-.284s.824-.392,1.066-.606v-1.6h-2.525Z"/>
    </g>
  </g>
  <g class="st6">
    <g class="st6">
      <path class="st0" d="M334.795,31.428l1.137.287c-.238.934-.667,1.646-1.286,2.136s-1.376.735-2.271.735c-.926,0-1.679-.188-2.259-.565s-1.021-.923-1.324-1.638-.454-1.482-.454-2.303c0-.895.171-1.675.513-2.341s.828-1.172,1.459-1.518,1.325-.519,2.083-.519c.859,0,1.582.219,2.168.656s.994,1.053,1.225,1.846l-1.119.264c-.199-.625-.488-1.08-.867-1.365s-.855-.428-1.43-.428c-.66,0-1.212.158-1.655.475s-.755.741-.935,1.274-.27,1.083-.27,1.649c0,.73.106,1.368.319,1.913.213.545.544.952.993,1.222s.936.404,1.459.404c.637,0,1.176-.184,1.617-.551s.74-.912.896-1.635v.002h0Z"/>
      <path class="st0" d="M342.969,25.85h1.137v4.963c0,.863-.098,1.549-.293,2.057s-.548.921-1.058,1.239-1.179.478-2.007.478c-.805,0-1.463-.139-1.975-.416s-.877-.679-1.096-1.204-.328-1.243-.328-2.153v-4.963h1.137v4.957c0,.746.069,1.296.208,1.649s.377.626.715.817.751.287,1.239.287c.836,0,1.432-.189,1.787-.568s.533-1.107.533-2.186v-4.957h.001Z"/>
      <path class="st0" d="M348.184,34.44v-7.576h-2.83v-1.014h6.809v1.014h-2.842v7.576h-1.137Z"/>
      <path class="st0" d="M355.514,34.44v-7.576h-2.83v-1.014h6.809v1.014h-2.842v7.576h-1.137Z"/>
      <path class="st0" d="M360.682,34.44v-8.59h6.211v1.014h-5.074v2.631h4.752v1.008h-4.752v2.924h5.273v1.014h-6.41Z"/>
      <path class="st0" d="M368.68,34.44v-8.59h3.809c.766,0,1.348.077,1.746.231s.717.427.955.817.357.822.357,1.295c0,.609-.197,1.123-.592,1.541s-1.004.684-1.828.797c.301.145.529.287.686.428.332.305.646.686.943,1.143l1.494,2.338h-1.43l-1.137-1.787c-.332-.516-.605-.91-.82-1.184s-.407-.465-.577-.574-.343-.186-.519-.229c-.129-.027-.34-.041-.633-.041h-1.318v3.814h-1.137.001ZM369.816,29.641h2.443c.52,0,.926-.054,1.219-.161s.516-.279.668-.516.229-.493.229-.771c0-.406-.147-.74-.442-1.002s-.761-.393-1.397-.393h-2.719v2.842h-.001Z"/>
    </g>
  </g>
  <g class="st6">
    <g class="st6">
      <path class="st0" d="M374.946,100v-8.59h2.959c.668,0,1.178.041,1.529.123.492.113.912.318,1.26.615.453.383.792.872,1.017,1.468s.337,1.276.337,2.042c0,.652-.076,1.23-.229,1.734s-.348.921-.586,1.251-.499.59-.782.779-.625.333-1.025.431-.86.146-1.38.146h-3.1ZM376.083,98.986h1.834c.566,0,1.011-.053,1.333-.158s.579-.254.771-.445c.27-.27.479-.632.63-1.087s.226-1.007.226-1.655c0-.898-.147-1.589-.442-2.071s-.653-.806-1.075-.97c-.305-.117-.795-.176-1.471-.176h-1.805v6.562h-.001Z"/>
      <path class="st0" d="M383.635,100v-8.59h6.211v1.014h-5.074v2.631h4.752v1.008h-4.752v2.924h5.273v1.014h-6.41Z"/>
      <path class="st0" d="M397.745,96.988l1.137.287c-.238.934-.667,1.646-1.286,2.136s-1.376.735-2.271.735c-.926,0-1.679-.188-2.259-.565s-1.021-.923-1.324-1.638-.454-1.482-.454-2.303c0-.895.171-1.675.513-2.341s.828-1.172,1.459-1.518,1.325-.519,2.083-.519c.859,0,1.582.219,2.168.656s.994,1.053,1.225,1.846l-1.119.264c-.199-.625-.488-1.08-.867-1.365s-.855-.428-1.43-.428c-.66,0-1.212.158-1.655.475s-.755.741-.935,1.274-.27,1.083-.27,1.649c0,.73.106,1.368.319,1.913s.544.952.993,1.222.936.404,1.459.404c.637,0,1.176-.184,1.617-.551s.74-.912.896-1.635v.002h0Z"/>
      <path class="st0" d="M400.235,100v-8.59h1.137v4.26l4.266-4.26h1.541l-3.604,3.48,3.762,5.109h-1.5l-3.059-4.348-1.406,1.371v2.977h-1.137,0Z"/>
    </g>
  </g>
  <g class="st6">
    <g class="st6">
      <path class="st0" d="M493.091,44v-8.59h1.711l2.033,6.082c.188.566.324.99.41,1.271.098-.312.25-.771.457-1.377l2.057-5.977h1.529v8.59h-1.096v-7.189l-2.496,7.189h-1.025l-2.484-7.312v7.312h-1.096,0Z"/>
      <path class="st0" d="M503.146,44v-8.59h6.211v1.014h-5.074v2.631h4.752v1.008h-4.752v2.924h5.273v1.014h-6.41Z"/>
      <path class="st0" d="M511.144,44v-8.59h3.809c.766,0,1.348.077,1.746.231s.717.427.955.817.357.822.357,1.295c0,.609-.197,1.123-.592,1.541s-1.004.684-1.828.797c.301.145.529.287.686.428.332.305.646.686.943,1.143l1.494,2.338h-1.43l-1.137-1.787c-.332-.516-.605-.91-.82-1.184s-.407-.465-.577-.574-.343-.186-.519-.229c-.129-.027-.34-.041-.633-.041h-1.318v3.814h-1.137.001ZM512.28,39.201h2.443c.52,0,.926-.054,1.219-.161s.516-.279.668-.516.229-.493.229-.771c0-.406-.147-.74-.442-1.002s-.761-.393-1.397-.393h-2.719v2.842h-.001Z"/>
      <path class="st0" d="M523.812,40.631v-1.008l3.639-.006v3.188c-.559.445-1.135.78-1.729,1.005s-1.203.337-1.828.337c-.844,0-1.61-.181-2.3-.542s-1.21-.884-1.562-1.567-.527-1.447-.527-2.291c0-.836.175-1.616.524-2.341s.853-1.263,1.509-1.614,1.412-.527,2.268-.527c.621,0,1.183.101,1.685.302s.896.481,1.181.841.502.828.65,1.406l-1.025.281c-.129-.438-.289-.781-.48-1.031s-.465-.45-.82-.601-.75-.226-1.184-.226c-.52,0-.969.079-1.348.237s-.685.366-.917.624-.413.541-.542.85c-.219.531-.328,1.107-.328,1.729,0,.766.132,1.406.396,1.922s.647.898,1.151,1.148,1.039.375,1.605.375c.492,0,.973-.095,1.441-.284s.824-.392,1.066-.606v-1.6h-2.525,0Z"/>
      <path class="st0" d="M529.149,44v-8.59h6.211v1.014h-5.074v2.631h4.752v1.008h-4.752v2.924h5.273v1.014h-6.41Z"/>
    </g>
  </g>
  <g class="st6">
    <g class="st6">
      <path class="st0" d="M532.954,44v-8.59h5.795v1.014h-4.658v2.66h4.031v1.014h-4.031v3.902h-1.137,0Z"/>
      <path class="st0" d="M539.353,44l3.322-4.477-2.93-4.113h1.354l1.559,2.203c.324.457.555.809.691,1.055.191-.312.418-.639.68-.979l1.729-2.279h1.236l-3.018,4.049,3.252,4.541h-1.406l-2.162-3.064c-.121-.176-.246-.367-.375-.574-.191.312-.328.527-.41.645l-2.156,2.994h-1.366Z"/>
    </g>
  </g>
  <g class="st6">
    <g class="st6">
      <path class="st0" d="M518.171,67.829h-1.055v-6.721c-.254.242-.587.484-.999.727s-.782.424-1.11.545v-1.02c.59-.277,1.105-.613,1.547-1.008s.754-.777.938-1.148h.68v8.625h0Z"/>
    </g>
  </g>
  <g class="st6">
    <g class="st6">
      <path class="st0" d="M530.001,66.815v1.014h-5.678c-.008-.254.033-.498.123-.732.145-.387.376-.768.694-1.143s.778-.809,1.38-1.301c.934-.766,1.564-1.372,1.893-1.819s.492-.87.492-1.269c0-.418-.149-.771-.448-1.058s-.688-.431-1.169-.431c-.508,0-.914.152-1.219.457s-.459.727-.463,1.266l-1.084-.111c.074-.809.354-1.425.838-1.849s1.135-.636,1.951-.636c.824,0,1.477.229,1.957.686s.721,1.023.721,1.699c0,.344-.07.682-.211,1.014s-.374.682-.7,1.049c-.326.367-.868.871-1.626,1.512-.633.531-1.039.892-1.219,1.081s-.328.38-.445.571h4.213Z"/>
    </g>
  </g>
  <g class="st6">
    <g class="st6">
      <path class="st0" d="M534.714,65.561l1.055-.141c.121.598.327,1.028.618,1.292s.646.396,1.063.396c.496,0,.915-.172,1.257-.516s.513-.77.513-1.277c0-.484-.158-.884-.475-1.198s-.719-.472-1.207-.472c-.199,0-.447.039-.744.117l.117-.926c.07.008.127.012.17.012.449,0,.854-.117,1.213-.352s.539-.596.539-1.084c0-.387-.131-.707-.393-.961s-.6-.381-1.014-.381c-.41,0-.752.129-1.025.387s-.449.645-.527,1.16l-1.055-.188c.129-.707.422-1.255.879-1.644s1.025-.583,1.705-.583c.469,0,.9.101,1.295.302s.696.476.905.823.313.717.313,1.107c0,.371-.1.709-.299,1.014s-.494.547-.885.727c.508.117.902.36,1.184.729.282.369.422.831.422,1.386,0,.75-.273,1.386-.82,1.907s-1.238.782-2.074.782c-.754,0-1.38-.225-1.878-.674s-.782-1.031-.853-1.746v.002h0Z"/>
    </g>
  </g>
  <g class="st6">
    <g class="st6">
      <path class="st0" d="M548.349,67.829v-2.057h-3.727v-.967l3.92-5.566h.861v5.566h1.16v.967h-1.16v2.057h-1.055,0ZM548.349,64.806v-3.873l-2.689,3.873h2.689Z"/>
    </g>
  </g>
  <circle id="jog_x5F_L" class="st1" cx="294" cy="240.16" r="150"/>
  <circle id="jogwheel_x5F_center_x5F_L" class="st3" cx="294" cy="240.16" r="115"/>
  <g class="st6">
    <g class="st6">
      <path class="st0" d="M274.546,242.862l1.025-.141c.027.656.15,1.105.369,1.348s.521.363.908.363c.285,0,.531-.065.738-.196s.35-.309.428-.533.117-.583.117-1.075v-5.918h1.137v5.854c0,.719-.087,1.275-.261,1.67s-.449.695-.826.902-.819.311-1.327.311c-.754,0-1.331-.217-1.731-.65s-.593-1.078-.577-1.934h0Z"/>
      <path class="st0" d="M280.78,241.116c0-1.426.383-2.542,1.148-3.349s1.754-1.21,2.965-1.21c.793,0,1.508.189,2.145.568s1.122.907,1.456,1.585.501,1.446.501,2.306c0,.871-.176,1.65-.527,2.338s-.85,1.208-1.494,1.562-1.34.53-2.086.53c-.809,0-1.531-.195-2.168-.586s-1.119-.924-1.447-1.6-.492-1.391-.492-2.145h-.001ZM281.952,241.134c0,1.035.278,1.851.835,2.446s1.255.894,2.095.894c.855,0,1.56-.301,2.112-.902s.829-1.455.829-2.561c0-.699-.118-1.31-.354-1.831s-.582-.926-1.037-1.213-.966-.431-1.532-.431c-.805,0-1.497.276-2.077.829s-.87,1.476-.87,2.769h-.001Z"/>
      <path class="st0" d="M294.479,241.931v-1.008l3.639-.006v3.188c-.559.445-1.135.78-1.729,1.005s-1.203.337-1.828.337c-.844,0-1.61-.181-2.3-.542s-1.21-.884-1.562-1.567-.527-1.447-.527-2.291c0-.836.175-1.616.524-2.341s.853-1.263,1.509-1.614,1.412-.527,2.268-.527c.621,0,1.183.101,1.685.302s.896.481,1.181.841.502.828.65,1.406l-1.025.281c-.129-.438-.289-.781-.48-1.031s-.465-.45-.82-.601-.75-.226-1.184-.226c-.52,0-.969.079-1.348.237s-.685.366-.917.624-.413.541-.542.85c-.219.531-.328,1.107-.328,1.729,0,.766.132,1.406.396,1.922s.647.898,1.151,1.148,1.039.375,1.605.375c.492,0,.973-.095,1.441-.284s.824-.392,1.066-.606v-1.6h-2.525Z"/>
    </g>
  </g>
  <g class="st6">
    <g class="st6">
      <path class="st0" d="M299.639,245.3v-8.59h1.137v7.576h4.23v1.014h-5.367Z"/>
    </g>
  </g>
  <rect id="hotcue_x5F_L" class="st1" x="115" y="409.1" width="84" height="20" rx="6" ry="6"/>
  <rect id="pad_x5F_L_x5F_1" class="st1" x="118.78" y="440.07" width="76.45" height="52.93"/>
  <rect id="pad_x5F_L_x5F_2" class="st1" x="212.87" y="440.07" width="76.45" height="52.93"/>
  <rect id="pad_x5F_L_x5F_3" class="st1" x="306.96" y="440.07" width="76.45" height="52.93"/>
  <rect id="pad_x5F_L_x5F_4" class="st1" x="401.05" y="440.07" width="76.45" height="52.93"/>
  <rect id="pad_x5F_L_x5F_5" class="st1" x="118.78" y="504.76" width="76.45" height="52.93"/>
  <rect id="pad_x5F_L_x5F_6" class="st1" x="212.87" y="504.76" width="76.45" height="52.93"/>
  <rect id="pad_x5F_L_x5F_7" class="st1" x="306.96" y="504.76" width="76.45" height="52.93"/>
  <rect id="pad_x5F_L_x5F_8" class="st1" x="401.05" y="504.76" width="76.45" height="52.93"/>
  <g id="tempo_x5F_L">
    <path id="Tempo_L" class="st3" d="M524.7,399.85h0c3.87,0,7,3.13,7,7v146c0,3.87-3.13,7-7,7h0c-3.87,0-7-3.13-7-7v-146c0-3.87,3.13-7,7-7h0Z"/>
    <rect id="slider_TEMPO_L" class="st1" x="513.7" y="469.85" width="22" height="26" rx="6" ry="6"/>
  </g>
  <g class="st6">
    <g class="st6">
      <path class="st0" d="M509.731,578.18v-7.576h-2.83v-1.014h6.809v1.014h-2.842v7.576h-1.137Z"/>
      <path class="st0" d="M514.899,578.18v-8.59h6.211v1.014h-5.074v2.631h4.752v1.008h-4.752v2.924h5.273v1.014h-6.41Z"/>
      <path class="st0" d="M522.845,578.18v-8.59h1.711l2.033,6.082c.188.566.324.99.41,1.271.098-.312.25-.771.457-1.377l2.057-5.977h1.529v8.59h-1.096v-7.189l-2.496,7.189h-1.025l-2.484-7.312v7.312h-1.096,0Z"/>
      <path class="st0" d="M532.876,578.18v-8.59h3.24c.57,0,1.006.027,1.307.082.422.07.775.204,1.061.401s.515.474.688.829.261.746.261,1.172c0,.73-.232,1.349-.697,1.854s-1.305.759-2.52.759h-2.203v3.492h-1.137,0ZM534.013,573.674h2.221c.734,0,1.256-.137,1.564-.41s.463-.658.463-1.154c0-.359-.091-.667-.272-.923s-.421-.425-.718-.507c-.191-.051-.545-.076-1.061-.076h-2.197v3.07h0Z"/>
      <path class="st0" d="M540.534,573.996c0-1.426.383-2.542,1.148-3.349s1.754-1.21,2.965-1.21c.793,0,1.508.189,2.145.568s1.122.907,1.456,1.585.501,1.446.501,2.306c0,.871-.176,1.65-.527,2.338s-.85,1.208-1.494,1.562-1.34.53-2.086.53c-.809,0-1.531-.195-2.168-.586s-1.119-.924-1.447-1.6-.492-1.391-.492-2.145h0ZM541.706,574.014c0,1.035.278,1.851.835,2.446s1.255.894,2.095.894c.855,0,1.56-.301,2.112-.902s.829-1.455.829-2.561c0-.699-.118-1.31-.354-1.831s-.582-.926-1.037-1.213-.966-.431-1.532-.431c-.805,0-1.497.276-2.077.829s-.87,1.476-.87,2.769h0Z"/>
    </g>
  </g>
  <g class="st6">
    <g class="st6">
      <path class="st0" d="M726.969,27.92v-8.59h1.137v7.576h4.23v1.014h-5.367Z"/>
      <path class="st0" d="M733.344,23.736c0-1.426.383-2.542,1.148-3.349s1.754-1.21,2.965-1.21c.793,0,1.508.189,2.145.568s1.122.907,1.456,1.585.501,1.446.501,2.306c0,.871-.176,1.65-.527,2.338s-.85,1.208-1.494,1.562-1.34.53-2.086.53c-.809,0-1.531-.195-2.168-.586s-1.119-.924-1.447-1.6-.492-1.391-.492-2.145h0ZM734.516,23.754c0,1.035.278,1.851.835,2.446s1.255.894,2.095.894c.855,0,1.56-.301,2.112-.902s.829-1.455.829-2.561c0-.699-.118-1.31-.354-1.831s-.582-.926-1.037-1.213-.966-.431-1.532-.431c-.805,0-1.497.276-2.077.829s-.87,1.476-.87,2.769h0Z"/>
      <path class="st0" d="M742.08,27.92l3.299-8.59h1.225l3.516,8.59h-1.295l-1.002-2.602h-3.592l-.943,2.602h-1.208ZM744.559,24.393h2.912l-.896-2.379c-.273-.723-.477-1.316-.609-1.781-.109.551-.264,1.098-.463,1.641l-.943,2.52h0Z"/>
      <path class="st0" d="M751.027,27.92v-8.59h2.959c.668,0,1.178.041,1.529.123.492.113.912.318,1.26.615.453.383.792.872,1.017,1.468s.337,1.276.337,2.042c0,.652-.076,1.23-.229,1.734s-.348.921-.586,1.251-.499.59-.782.779-.625.333-1.025.431-.86.146-1.38.146h-3.1ZM752.164,26.906h1.834c.566,0,1.011-.053,1.333-.158s.579-.254.771-.445c.27-.27.479-.632.63-1.087s.226-1.007.226-1.655c0-.898-.147-1.589-.442-2.071s-.653-.806-1.075-.97c-.305-.117-.795-.176-1.471-.176h-1.805v6.562h0Z"/>
    </g>
  </g>
  <g class="st6">
    <g class="st6">
      <path class="st0" d="M701.23,482.85h-1.055v-6.721c-.254.242-.587.484-.999.727s-.782.424-1.11.545v-1.02c.59-.277,1.105-.613,1.547-1.008s.754-.777.938-1.148h.68v8.625h0Z"/>
    </g>
  </g>
  <g class="st6">
    <g class="st6">
      <path class="st0" d="M791.331,481.836v1.014h-5.678c-.008-.254.033-.498.123-.732.145-.387.376-.768.694-1.143s.778-.809,1.38-1.301c.934-.766,1.564-1.372,1.893-1.819s.492-.87.492-1.269c0-.418-.149-.771-.448-1.058s-.688-.431-1.169-.431c-.508,0-.914.152-1.219.457s-.459.727-.463,1.266l-1.084-.111c.074-.809.354-1.425.838-1.849s1.135-.636,1.951-.636c.824,0,1.477.229,1.957.686s.721,1.023.721,1.699c0,.344-.07.682-.211,1.014s-.374.682-.7,1.049-.868.871-1.626,1.512c-.633.531-1.039.892-1.219,1.081s-.328.38-.445.571h4.213Z"/>
    </g>
  </g>
  <g class="st6">
    <g class="st6">
      <path class="st0" d="M607.344,480.582l1.055-.141c.121.598.327,1.028.618,1.292s.646.396,1.063.396c.496,0,.915-.172,1.257-.516s.513-.77.513-1.277c0-.484-.158-.884-.475-1.198s-.719-.472-1.207-.472c-.199,0-.447.039-.744.117l.117-.926c.07.008.127.012.17.012.449,0,.854-.117,1.213-.352s.539-.596.539-1.084c0-.387-.131-.707-.393-.961s-.6-.381-1.014-.381c-.41,0-.752.129-1.025.387s-.449.645-.527,1.16l-1.055-.188c.129-.707.422-1.255.879-1.644s1.025-.583,1.705-.583c.469,0,.9.101,1.295.302s.696.476.905.823.313.717.313,1.107c0,.371-.1.709-.299,1.014s-.494.547-.885.727c.508.117.902.36,1.184.729s.422.831.422,1.386c0,.75-.273,1.386-.82,1.907s-1.238.782-2.074.782c-.754,0-1.38-.225-1.878-.674s-.782-1.031-.853-1.746v.002h0Z"/>
    </g>
  </g>
  <g class="st6">
    <g class="st6">
      <path class="st0" d="M968.669,487.78v-2.057h-3.727v-.967l3.92-5.566h.861v5.566h1.16v.967h-1.16v2.057h-1.055,0ZM968.669,484.757v-3.873l-2.689,3.873h2.689Z"/>
    </g>
  </g>
  <rect id="load_x5F_3" class="st1" x="573.64" y="37.78" width="70" height="22" rx="6" ry="6"/>
  <rect id="load_x5F_1" class="st1" x="661.76" y="37.78" width="70" height="22" rx="6" ry="6"/>
  <rect id="load_x5F_2" class="st1" x="751.84" y="37.78" width="70" height="22" rx="6" ry="6"/>
  <rect id="load_x5F_4" class="st1" x="840.84" y="37.78" width="70" height="22" rx="6" ry="6"/>
  <rect id="headphone_x5F_cue_x5F_3" class="st1" x="590.84" y="255.78" width="32" height="18" rx="5" ry="5"/>
  <g id="channel_x5F_3">
    <path id="ch3" class="st3" d="M606.84,281.78h0c3.31,0,6,2.69,6,6v168c0,3.31-2.69,6-6,6h0c-3.31,0-6-2.69-6-6v-168c0-3.31,2.69-6,6-6Z"/>
    <rect id="slider_ch3" class="st1" x="596.84" y="347.78" width="20" height="22" rx="6" ry="6"/>
  </g>
  <rect id="headphone_x5F_cue_x5F_1" class="st1" x="680.76" y="256.78" width="32" height="18" rx="5" ry="5"/>
  <g id="channel_x5F_1">
    <path id="ch1" class="st3" d="M696.76,282.78h0c3.31,0,6,2.69,6,6v168c0,3.31-2.69,6-6,6h0c-3.31,0-6-2.69-6-6v-168c0-3.31,2.69-6,6-6Z"/>
    <rect id="slider_ch1" class="st1" x="686.76" y="348.78" width="20" height="22" rx="6" ry="6"/>
  </g>
  <rect id="headphone_x5F_cue_x5F_2" class="st1" x="769.29" y="256.78" width="32" height="18" rx="5" ry="5"/>
  <g id="channel_x5F_2">
    <path id="ch2" class="st3" d="M785.29,282.78h0c3.31,0,6,2.69,6,6v168c0,3.31-2.69,6-6,6h0c-3.31,0-6-2.69-6-6v-168c0-3.31,2.69-6,6-6Z"/>
    <rect id="slider_ch2" class="st1" x="775.29" y="348.78" width="20" height="22" rx="6" ry="6"/>
  </g>
  <rect id="headphone_x5F_cue_x5F_4" class="st1" x="862.29" y="256.78" width="32" height="18" rx="5" ry="5"/>
  <g id="channel_x5F_4">
    <path id="ch4" class="st3" d="M878.29,282.78h0c3.31,0,6,2.69,6,6v168c0,3.31-2.69,6-6,6h0c-3.31,0-6-2.69-6-6v-168c0-3.31,2.69-6,6-6Z"/>
    <rect id="slider_ch4" class="st1" x="868.29" y="348.78" width="20" height="22" rx="6" ry="6"/>
  </g>
  <g id="crossfader">
    <path id="xfader" class="st3" d="M578.7,508.72h327.08c2.79,0,5.06,2.26,5.06,5.06h0c0,2.79-2.26,5.06-5.06,5.06h-327.08c-2.79,0-5.06-2.26-5.06-5.06h0c0-2.79,2.26-5.06,5.06-5.06h0Z"/>
    <rect id="xfader_slider" class="st1" x="716.95" y="505.35" width="50.58" height="16.86" rx="6" ry="6"/>
  </g>
  <g class="st6">
    <g class="st6">
      <path class="st0" d="M719.814,541.168l1.137.287c-.238.934-.667,1.646-1.286,2.136s-1.376.735-2.271.735c-.926,0-1.679-.188-2.259-.565s-1.021-.923-1.324-1.638-.454-1.482-.454-2.303c0-.895.171-1.675.513-2.341s.828-1.172,1.459-1.518,1.325-.519,2.083-.519c.859,0,1.582.219,2.168.656s.994,1.053,1.225,1.846l-1.119.264c-.199-.625-.488-1.08-.867-1.365s-.855-.428-1.43-.428c-.66,0-1.212.158-1.655.475s-.755.741-.935,1.274-.27,1.083-.27,1.649c0,.73.106,1.368.319,1.913s.544.952.993,1.222.936.404,1.459.404c.637,0,1.176-.184,1.617-.551s.74-.912.896-1.635v.002h.001Z"/>
      <path class="st0" d="M722.369,544.18v-8.59h3.809c.766,0,1.348.077,1.746.231s.717.427.955.817.357.822.357,1.295c0,.609-.197,1.123-.592,1.541s-1.004.684-1.828.797c.301.145.529.287.686.428.332.305.646.686.943,1.143l1.494,2.338h-1.43l-1.137-1.787c-.332-.516-.605-.91-.82-1.184s-.407-.465-.577-.574-.343-.186-.519-.229c-.129-.027-.34-.041-.633-.041h-1.318v3.814h-1.137.001ZM723.506,539.381h2.443c.52,0,.926-.054,1.219-.161s.516-.279.668-.516.229-.493.229-.771c0-.406-.147-.74-.442-1.002s-.761-.393-1.397-.393h-2.719v2.842h-.001Z"/>
      <path class="st0" d="M730.672,539.996c0-1.426.383-2.542,1.148-3.349s1.754-1.21,2.965-1.21c.793,0,1.508.189,2.145.568s1.122.907,1.456,1.585.501,1.446.501,2.306c0,.871-.176,1.65-.527,2.338s-.85,1.208-1.494,1.562-1.34.53-2.086.53c-.809,0-1.531-.195-2.168-.586s-1.119-.924-1.447-1.6-.492-1.391-.492-2.145h0ZM731.844,540.014c0,1.035.278,1.851.835,2.446s1.255.894,2.095.894c.855,0,1.56-.301,2.112-.902s.829-1.455.829-2.561c0-.699-.118-1.31-.354-1.831s-.582-.926-1.037-1.213-.966-.431-1.532-.431c-.805,0-1.497.276-2.077.829s-.87,1.476-.87,2.769h0Z"/>
      <path class="st0" d="M739.965,541.42l1.072-.094c.051.43.169.782.354,1.058s.474.498.864.668.83.255,1.318.255c.434,0,.816-.064,1.148-.193s.579-.306.741-.53.243-.47.243-.735c0-.27-.078-.505-.234-.706s-.414-.37-.773-.507c-.23-.09-.74-.229-1.529-.419s-1.342-.368-1.658-.536c-.41-.215-.716-.481-.917-.8s-.302-.675-.302-1.069c0-.434.123-.839.369-1.216s.605-.663,1.078-.858.998-.293,1.576-.293c.637,0,1.198.103,1.685.308s.86.507,1.122.905.402.85.422,1.354l-1.09.082c-.059-.543-.257-.953-.595-1.23s-.837-.416-1.497-.416c-.688,0-1.188.126-1.503.378s-.472.556-.472.911c0,.309.111.562.334.762.219.199.79.403,1.714.612s1.558.392,1.901.548c.5.23.869.522,1.107.876s.357.761.357,1.222c0,.457-.131.888-.393,1.292s-.638.719-1.128.943-1.042.337-1.655.337c-.777,0-1.429-.113-1.954-.34s-.938-.567-1.236-1.022-.456-.97-.472-1.544l.003-.003h0Z"/>
      <path class="st0" d="M747.969,541.42l1.072-.094c.051.43.169.782.354,1.058s.474.498.864.668.83.255,1.318.255c.434,0,.816-.064,1.148-.193s.579-.306.741-.53.243-.47.243-.735c0-.27-.078-.505-.234-.706s-.414-.37-.773-.507c-.23-.09-.74-.229-1.529-.419s-1.342-.368-1.658-.536c-.41-.215-.716-.481-.917-.8s-.302-.675-.302-1.069c0-.434.123-.839.369-1.216s.605-.663,1.078-.858.998-.293,1.576-.293c.637,0,1.198.103,1.685.308s.86.507,1.122.905.402.85.422,1.354l-1.09.082c-.059-.543-.257-.953-.595-1.23s-.837-.416-1.497-.416c-.688,0-1.188.126-1.503.378s-.472.556-.472.911c0,.309.111.562.334.762.219.199.79.403,1.714.612s1.558.392,1.901.548c.5.23.869.522,1.107.876s.357.761.357,1.222c0,.457-.131.888-.393,1.292s-.638.719-1.128.943-1.042.337-1.655.337c-.777,0-1.429-.113-1.954-.34s-.938-.567-1.236-1.022-.456-.97-.472-1.544l.003-.003h0Z"/>
      <path class="st0" d="M756.418,544.18v-8.59h5.795v1.014h-4.658v2.66h4.031v1.014h-4.031v3.902h-1.137,0Z"/>
      <path class="st0" d="M762.084,544.18l3.299-8.59h1.225l3.516,8.59h-1.295l-1.002-2.602h-3.592l-.943,2.602h-1.208ZM764.562,540.652h2.912l-.896-2.379c-.273-.723-.477-1.316-.609-1.781-.109.551-.264,1.098-.463,1.641l-.943,2.52h0Z"/>
      <path class="st0" d="M771.031,544.18v-8.59h2.959c.668,0,1.178.041,1.529.123.492.113.912.318,1.26.615.453.383.792.872,1.017,1.468s.337,1.276.337,2.042c0,.652-.076,1.23-.229,1.734s-.348.921-.586,1.251-.499.59-.782.779-.625.333-1.025.431-.86.146-1.38.146h-3.1ZM772.168,543.166h1.834c.566,0,1.011-.053,1.333-.158s.579-.254.771-.445c.27-.27.479-.632.63-1.087s.226-1.007.226-1.655c0-.898-.147-1.589-.442-2.071s-.653-.806-1.075-.97c-.305-.117-.795-.176-1.471-.176h-1.805v6.562h0Z"/>
      <path class="st0" d="M779.721,544.18v-8.59h6.211v1.014h-5.074v2.631h4.752v1.008h-4.752v2.924h5.273v1.014h-6.41Z"/>
      <path class="st0" d="M787.719,544.18v-8.59h3.809c.766,0,1.348.077,1.746.231s.717.427.955.817.357.822.357,1.295c0,.609-.197,1.123-.592,1.541s-1.004.684-1.828.797c.301.145.529.287.686.428.332.305.646.686.943,1.143l1.494,2.338h-1.43l-1.137-1.787c-.332-.516-.605-.91-.82-1.184s-.407-.465-.577-.574-.343-.186-.519-.229c-.129-.027-.34-.041-.633-.041h-1.318v3.814h-1.137.001ZM788.855,539.381h2.443c.52,0,.926-.054,1.219-.161s.516-.279.668-.516.229-.493.229-.771c0-.406-.147-.74-.442-1.002s-.761-.393-1.397-.393h-2.719v2.842h-.001Z"/>
    </g>
  </g>
  <g class="st6">
    <g class="st6">
      <path class="st0" d="M1330.096,291.562l1.025-.141c.027.656.15,1.105.369,1.348s.521.363.908.363c.285,0,.531-.065.738-.196s.35-.309.428-.533.117-.583.117-1.075v-5.918h1.137v5.854c0,.719-.087,1.275-.261,1.67s-.449.695-.826.902-.819.311-1.327.311c-.754,0-1.331-.217-1.731-.65s-.593-1.078-.577-1.934h0Z"/>
      <path class="st0" d="M1336.33,289.816c0-1.426.383-2.542,1.148-3.349s1.754-1.21,2.965-1.21c.793,0,1.508.189,2.145.568s1.122.907,1.456,1.585.501,1.446.501,2.306c0,.871-.176,1.65-.527,2.338s-.85,1.208-1.494,1.562-1.34.53-2.086.53c-.809,0-1.531-.195-2.168-.586s-1.119-.924-1.447-1.6-.492-1.391-.492-2.145h0ZM1337.502,289.834c0,1.035.278,1.851.835,2.446s1.255.894,2.095.894c.855,0,1.56-.301,2.112-.902s.829-1.455.829-2.561c0-.699-.118-1.31-.354-1.831s-.582-.926-1.037-1.213-.966-.431-1.532-.431c-.805,0-1.497.276-2.077.829s-.87,1.476-.87,2.769h0Z"/>
      <path class="st0" d="M1350.029,290.631v-1.008l3.639-.006v3.188c-.559.445-1.135.78-1.729,1.005s-1.203.337-1.828.337c-.844,0-1.61-.181-2.3-.542s-1.21-.884-1.562-1.567-.527-1.447-.527-2.291c0-.836.175-1.616.524-2.341s.853-1.263,1.509-1.614,1.412-.527,2.268-.527c.621,0,1.183.101,1.685.302s.896.481,1.181.841.502.828.65,1.406l-1.025.281c-.129-.438-.289-.781-.48-1.031s-.465-.45-.82-.601-.75-.226-1.184-.226c-.52,0-.969.079-1.348.237s-.685.366-.917.624-.413.541-.542.85c-.219.531-.328,1.107-.328,1.729,0,.766.132,1.406.396,1.922s.647.898,1.151,1.148,1.039.375,1.605.375c.492,0,.973-.095,1.441-.284s.824-.392,1.066-.606v-1.6h-2.525Z"/>
    </g>
  </g>
  <g class="st6">
    <g class="st6">
      <path class="st0" d="M1355.254,294v-8.59h3.809c.766,0,1.348.077,1.746.231s.717.427.955.817.357.822.357,1.295c0,.609-.197,1.123-.592,1.541s-1.004.684-1.828.797c.301.145.529.287.686.428.332.305.646.686.943,1.143l1.494,2.338h-1.43l-1.137-1.787c-.332-.516-.605-.91-.82-1.184s-.408-.465-.578-.574-.342-.186-.518-.229c-.129-.027-.34-.041-.633-.041h-1.318v3.814h-1.137,0ZM1356.391,289.201h2.443c.52,0,.926-.054,1.219-.161s.516-.279.668-.516.229-.493.229-.771c0-.406-.148-.74-.443-1.002s-.76-.393-1.396-.393h-2.719v2.842h0Z"/>
    </g>
  </g>
  <circle id="loop_x5F_in_x5F_L" class="st1" cx="60" cy="60" r="16"/>
  <circle id="loop_x5F_out_x5F_L" class="st1" cx="118" cy="60" r="16"/>
  <circle id="select_x5F_loop_x5F_call_x5F_LL" class="st1" cx="281.02" cy="56.71" r="12"/>
  <circle id="select_x5F_loop_x5F_call_x5F_RL" class="st1" cx="335.02" cy="56.71" r="12"/>
  <circle id="loop_x5F_memory_x5F_L" class="st1" cx="386.02" cy="56.71" r="12"/>
  <circle id="jogcut_x5F_L" class="st1" cx="157" cy="120.13" r="16"/>
  <circle id="decks_x5F_L" class="st1" cx="115" cy="199.78" r="16"/>
  <rect id="sampler_x5F_L" class="st1" x="397.28" y="409.1" width="84" height="20" rx="6" ry="6"/>
  <rect id="beatjump_x5F_L" class="st1" x="303.18" y="408.31" width="84" height="20" rx="6" ry="6"/>
  <rect id="padfx_x5F_L" class="st1" x="209.09" y="409.1" width="84" height="20" rx="6" ry="6"/>
  <circle id="play_x5F_L" class="st5" cx="59.998" cy="453.031" r="34.77" transform="translate(-396.988 452.338) rotate(-82.369)"/>
  <circle id="cue_x5F_L" class="st4" cx="64.002" cy="530.769" r="34.77" transform="translate(-69.663 13.134) rotate(-7.603)"/>
  <circle id="beatsync_x5F_L" class="st1" cx="501.7" cy="375.5" r="12"/>
  <circle id="master_x5F_L" class="st1" cx="547.7" cy="375.5" r="12"/>
  <circle id="shift_x5F_L" class="st1" cx="102" cy="369.78" r="16"/>
  <path id="merge_x5F_button_x5F_L" class="st1" d="M469.455,58.806h25.47c3.31,0,6,2.69,6,6h0c0,3.31-2.69,6-6,6h-25.47c-3.31,0-6-2.69-6-6h0c0-3.31,2.69-6,6-6Z"/>
  <circle id="beatfx_x5F_select" class="st1" cx="968.97" cy="217.01" r="10"/>
  <circle id="beatfx_x5F_channel_x5F_select" class="st1" cx="968.97" cy="283.35" r="10"/>
  <path id="beatfx_x5F_down" class="st1" d="M930.08,327.77h27.86c3.31,0,6,2.69,6,6h0c0,3.31-2.69,6-6,6h-27.86c-3.31,0-6-2.69-6-6h0c0-3.31,2.69-6,6-6Z"/>
  <path id="beatfx_x5F_up" class="st1" d="M980.01,327.77h27.86c3.31,0,6,2.69,6,6h0c0,3.31-2.69,6-6,6h-27.86c-3.31,0-6-2.69-6-6h0c0-3.31,2.69-6,6-6Z"/>
  <circle id="effects_x5F_on_x5F_off_x5F_button" class="st1" cx="968.97" cy="468.44" r="32.53"/>
  <g class="st6">
    <g class="st6">
      <path class="st0" d="M1084.599,34.21v-8.59h1.137v7.576h4.23v1.014h-5.367Z"/>
      <path class="st0" d="M1090.974,30.026c0-1.426.383-2.542,1.148-3.349s1.754-1.21,2.965-1.21c.793,0,1.508.189,2.145.568s1.122.907,1.456,1.585.501,1.446.501,2.306c0,.871-.176,1.65-.527,2.338-.351.688-.85,1.208-1.494,1.562s-1.34.53-2.086.53c-.809,0-1.531-.195-2.168-.586s-1.119-.924-1.447-1.6-.492-1.391-.492-2.145h0ZM1092.146,30.044c0,1.035.278,1.851.835,2.446s1.255.894,2.095.894c.855,0,1.56-.301,2.112-.902s.829-1.455.829-2.561c0-.699-.118-1.31-.354-1.831s-.582-.926-1.037-1.213-.966-.431-1.532-.431c-.805,0-1.497.276-2.077.829s-.87,1.476-.87,2.769h0Z"/>
      <path class="st0" d="M1100.308,30.026c0-1.426.383-2.542,1.148-3.349s1.754-1.21,2.965-1.21c.793,0,1.508.189,2.145.568s1.122.907,1.456,1.585.501,1.446.501,2.306c0,.871-.176,1.65-.527,2.338-.351.688-.85,1.208-1.494,1.562s-1.34.53-2.086.53c-.809,0-1.531-.195-2.168-.586s-1.119-.924-1.447-1.6-.492-1.391-.492-2.145h0ZM1101.479,30.044c0,1.035.278,1.851.835,2.446s1.255.894,2.095.894c.855,0,1.56-.301,2.112-.902s.829-1.455.829-2.561c0-.699-.118-1.31-.354-1.831s-.582-.926-1.037-1.213-.966-.431-1.532-.431c-.805,0-1.497.276-2.077.829s-.87,1.476-.87,2.769h0Z"/>
      <path class="st0" d="M1109.987,34.21v-8.59h3.24c.57,0,1.006.027,1.307.082.422.07.775.204,1.061.401s.515.474.688.829.261.746.261,1.172c0,.73-.232,1.349-.697,1.854s-1.305.759-2.52.759h-2.203v3.492h-1.137ZM1111.124,29.704h2.221c.734,0,1.256-.137,1.564-.41s.463-.658.463-1.154c0-.359-.091-.667-.272-.923s-.421-.425-.718-.507c-.191-.051-.545-.076-1.061-.076h-2.197v3.07h0Z"/>
    </g>
  </g>
  <g class="st6">
    <g class="st6">
      <path class="st0" d="M1116.41,34.356l2.49-8.883h.844l-2.484,8.883h-.85Z"/>
    </g>
  </g>
  <g class="st6">
    <g class="st6">
      <path class="st0" d="M1125.511,34.21v-8.59h1.711l2.033,6.082c.188.566.324.99.41,1.271.098-.312.25-.771.457-1.377l2.057-5.977h1.529v8.59h-1.096v-7.189l-2.496,7.189h-1.025l-2.484-7.312v7.312h-1.096Z"/>
      <path class="st0" d="M1135.565,34.21v-8.59h6.211v1.014h-5.074v2.631h4.752v1.008h-4.752v2.924h5.273v1.014h-6.41Z"/>
      <path class="st0" d="M1143.511,34.21v-8.59h1.711l2.033,6.082c.188.566.324.99.41,1.271.098-.312.25-.771.457-1.377l2.057-5.977h1.529v8.59h-1.096v-7.189l-2.496,7.189h-1.025l-2.484-7.312v7.312h-1.096Z"/>
      <path class="st0" d="M1153.196,30.026c0-1.426.383-2.542,1.148-3.349s1.754-1.21,2.965-1.21c.793,0,1.508.189,2.145.568s1.122.907,1.456,1.585.501,1.446.501,2.306c0,.871-.176,1.65-.527,2.338-.351.688-.85,1.208-1.494,1.562s-1.34.53-2.086.53c-.809,0-1.531-.195-2.168-.586s-1.119-.924-1.447-1.6-.492-1.391-.492-2.145h0ZM1154.368,30.044c0,1.035.278,1.851.835,2.446s1.255.894,2.095.894c.855,0,1.56-.301,2.112-.902s.829-1.455.829-2.561c0-.699-.118-1.31-.354-1.831s-.582-.926-1.037-1.213-.966-.431-1.532-.431c-.805,0-1.497.276-2.077.829s-.87,1.476-.87,2.769h0Z"/>
      <path class="st0" d="M1162.894,34.21v-8.59h3.809c.766,0,1.348.077,1.746.231s.717.427.955.817.357.822.357,1.295c0,.609-.197,1.123-.592,1.541s-1.004.684-1.828.797c.301.145.529.287.686.428.332.305.646.686.943,1.143l1.494,2.338h-1.43l-1.137-1.787c-.332-.516-.605-.91-.82-1.184s-.407-.465-.577-.574-.343-.186-.519-.229c-.129-.027-.34-.041-.633-.041h-1.318v3.814h-1.137.001ZM1164.03,29.411h2.443c.52,0,.926-.054,1.219-.161s.516-.279.668-.516.229-.493.229-.771c0-.406-.147-.74-.442-1.002s-.761-.393-1.397-.393h-2.719v2.842h0Z"/>
      <path class="st0" d="M1173.745,34.21v-3.639l-3.311-4.951h1.383l1.693,2.59c.312.484.604.969.873,1.453.258-.449.57-.955.938-1.518l1.664-2.525h1.324l-3.428,4.951v3.639h-1.137,0Z"/>
    </g>
  </g>
  <circle id="out_x5F_loop_x5F_R" class="st1" cx="1180.27" cy="60.25" r="12"/>
  <g class="st6">
    <g class="st6">
      <path class="st0" d="M1307.796,32.252l1.025-.141c.027.656.15,1.105.369,1.348s.521.363.908.363c.285,0,.531-.065.738-.196s.35-.309.428-.533.117-.583.117-1.075v-5.918h1.137v5.854c0,.719-.087,1.275-.261,1.67s-.449.695-.826.902-.819.311-1.327.311c-.754,0-1.331-.217-1.731-.65s-.593-1.078-.577-1.934h0Z"/>
      <path class="st0" d="M1314.03,30.506c0-1.426.383-2.542,1.148-3.349s1.754-1.21,2.965-1.21c.793,0,1.508.189,2.145.568s1.122.907,1.456,1.585.501,1.446.501,2.306c0,.871-.176,1.65-.527,2.338s-.85,1.208-1.494,1.562-1.34.53-2.086.53c-.809,0-1.531-.195-2.168-.586s-1.119-.924-1.447-1.6-.492-1.391-.492-2.145h0ZM1315.202,30.524c0,1.035.278,1.851.835,2.446s1.255.894,2.095.894c.855,0,1.56-.301,2.112-.902s.829-1.455.829-2.561c0-.699-.118-1.31-.354-1.831s-.582-.926-1.037-1.213-.966-.431-1.532-.431c-.805,0-1.497.276-2.077.829s-.87,1.476-.87,2.769h0Z"/>
      <path class="st0" d="M1327.729,31.321v-1.008l3.639-.006v3.188c-.559.445-1.135.78-1.729,1.005s-1.203.337-1.828.337c-.844,0-1.61-.181-2.3-.542s-1.21-.884-1.562-1.567-.527-1.447-.527-2.291c0-.836.175-1.616.524-2.341s.853-1.263,1.509-1.614,1.412-.527,2.268-.527c.621,0,1.183.101,1.685.302s.896.481,1.181.841.502.828.65,1.406l-1.025.281c-.129-.438-.289-.781-.48-1.031s-.465-.45-.82-.601-.75-.226-1.184-.226c-.52,0-.969.079-1.348.237s-.685.366-.917.624-.413.541-.542.85c-.219.531-.328,1.107-.328,1.729,0,.766.132,1.406.396,1.922.264.516.647.898,1.151,1.148s1.039.375,1.605.375c.492,0,.973-.095,1.441-.284s.824-.392,1.066-.606v-1.6h-2.525Z"/>
    </g>
  </g>
  <g class="st6">
    <g class="st6">
      <path class="st0" d="M1339.064,31.678l1.137.287c-.238.934-.667,1.646-1.286,2.136s-1.376.735-2.271.735c-.926,0-1.679-.188-2.259-.565s-1.021-.923-1.324-1.638-.454-1.482-.454-2.303c0-.895.171-1.675.513-2.341s.828-1.172,1.459-1.518,1.325-.519,2.083-.519c.859,0,1.582.219,2.168.656s.994,1.053,1.225,1.846l-1.119.264c-.199-.625-.488-1.08-.867-1.365s-.855-.428-1.43-.428c-.66,0-1.212.158-1.655.475s-.755.741-.935,1.274-.27,1.083-.27,1.649c0,.73.106,1.368.319,1.913.213.545.544.952.993,1.222s.936.404,1.459.404c.637,0,1.176-.184,1.617-.551s.74-.912.896-1.635v.002h.001Z"/>
      <path class="st0" d="M1347.238,26.1h1.137v4.963c0,.863-.098,1.549-.293,2.057s-.548.921-1.058,1.239-1.179.478-2.007.478c-.805,0-1.463-.139-1.975-.416s-.877-.679-1.096-1.204-.328-1.243-.328-2.153v-4.963h1.137v4.957c0,.746.069,1.296.208,1.649s.377.626.715.817.751.287,1.239.287c.836,0,1.432-.189,1.787-.568s.533-1.107.533-2.186v-4.957h0Z"/>
      <path class="st0" d="M1352.453,34.69v-7.576h-2.83v-1.014h6.809v1.014h-2.842v7.576h-1.137Z"/>
      <path class="st0" d="M1359.783,34.69v-7.576h-2.83v-1.014h6.809v1.014h-2.842v7.576h-1.137Z"/>
      <path class="st0" d="M1364.951,34.69v-8.59h6.211v1.014h-5.074v2.631h4.752v1.008h-4.752v2.924h5.273v1.014h-6.41Z"/>
      <path class="st0" d="M1372.949,34.69v-8.59h3.809c.766,0,1.348.077,1.746.231s.717.427.955.817.357.822.357,1.295c0,.609-.197,1.123-.592,1.541s-1.004.684-1.828.797c.301.145.529.287.686.428.332.305.646.686.943,1.143l1.494,2.338h-1.43l-1.137-1.787c-.332-.516-.605-.91-.82-1.184s-.407-.465-.577-.574-.343-.186-.519-.229c-.129-.027-.34-.041-.633-.041h-1.318v3.814h-1.137.001ZM1374.086,29.891h2.443c.52,0,.926-.054,1.219-.161s.516-.279.668-.516.229-.493.229-.771c0-.406-.147-.74-.442-1.002s-.761-.393-1.397-.393h-2.719v2.842h0Z"/>
    </g>
  </g>
  <g class="st6">
    <g class="st6">
      <path class="st0" d="M1497.351,44.25v-8.59h1.711l2.033,6.082c.188.566.324.99.41,1.271.098-.312.25-.771.457-1.377l2.057-5.977h1.529v8.59h-1.096v-7.189l-2.496,7.189h-1.025l-2.484-7.312v7.312h-1.096Z"/>
      <path class="st0" d="M1507.405,44.25v-8.59h6.211v1.014h-5.074v2.631h4.752v1.008h-4.752v2.924h5.273v1.014h-6.41Z"/>
      <path class="st0" d="M1515.403,44.25v-8.59h3.809c.766,0,1.348.077,1.746.231s.717.427.955.817.357.822.357,1.295c0,.609-.197,1.123-.592,1.541s-1.004.684-1.828.797c.301.145.529.287.686.428.332.305.646.686.943,1.143l1.494,2.338h-1.43l-1.137-1.787c-.332-.516-.605-.91-.82-1.184s-.407-.465-.577-.574-.343-.186-.519-.229c-.129-.027-.34-.041-.633-.041h-1.318v3.814h-1.137.001ZM1516.54,39.451h2.443c.52,0,.926-.054,1.219-.161s.516-.279.668-.516.229-.493.229-.771c0-.406-.147-.74-.442-1.002s-.761-.393-1.397-.393h-2.719v2.842h0Z"/>
      <path class="st0" d="M1528.071,40.881v-1.008l3.639-.006v3.188c-.559.445-1.135.78-1.729,1.005s-1.203.337-1.828.337c-.844,0-1.61-.181-2.3-.542s-1.21-.884-1.562-1.567-.527-1.447-.527-2.291c0-.836.175-1.616.524-2.341s.853-1.263,1.509-1.614,1.412-.527,2.268-.527c.621,0,1.183.101,1.685.302s.896.481,1.181.841.502.828.65,1.406l-1.025.281c-.129-.438-.289-.781-.48-1.031s-.465-.45-.82-.601-.75-.226-1.184-.226c-.52,0-.969.079-1.348.237s-.685.366-.917.624-.413.541-.542.85c-.219.531-.328,1.107-.328,1.729,0,.766.132,1.406.396,1.922s.647.898,1.151,1.148,1.039.375,1.605.375c.492,0,.973-.095,1.441-.284s.824-.392,1.066-.606v-1.6h-2.525Z"/>
      <path class="st0" d="M1533.409,44.25v-8.59h6.211v1.014h-5.074v2.631h4.752v1.008h-4.752v2.924h5.273v1.014h-6.41Z"/>
    </g>
  </g>
  <g class="st6">
    <g class="st6">
      <path class="st0" d="M1537.215,44.25v-8.59h5.795v1.014h-4.658v2.66h4.031v1.014h-4.031v3.902h-1.137Z"/>
      <path class="st0" d="M1543.613,44.25l3.322-4.477-2.93-4.113h1.354l1.559,2.203c.324.457.555.809.691,1.055.191-.312.418-.639.68-.979l1.729-2.279h1.236l-3.018,4.049,3.252,4.541h-1.406l-2.162-3.064c-.121-.176-.246-.367-.375-.574-.191.312-.328.527-.41.645l-2.156,2.994h-1.366Z"/>
    </g>
  </g>
  <g class="st6">
    <g class="st6">
      <path class="st0" d="M1522.431,67.673h-1.055v-6.721c-.254.242-.587.484-.999.727s-.782.424-1.11.545v-1.02c.59-.277,1.105-.613,1.547-1.008s.754-.777.938-1.148h.68v8.625h0Z"/>
    </g>
  </g>
  <g class="st6">
    <g class="st6">
      <path class="st0" d="M1534.261,66.659v1.014h-5.678c-.008-.254.033-.498.123-.732.145-.387.376-.768.694-1.143s.778-.809,1.38-1.301c.934-.766,1.564-1.372,1.893-1.819s.492-.87.492-1.269c0-.418-.149-.771-.448-1.058s-.688-.431-1.169-.431c-.508,0-.914.152-1.219.457s-.459.727-.463,1.266l-1.084-.111c.074-.809.354-1.425.838-1.849s1.135-.636,1.951-.636c.824,0,1.477.229,1.957.686s.721,1.023.721,1.699c0,.344-.07.682-.211,1.014s-.374.682-.7,1.049-.868.871-1.626,1.512c-.633.531-1.039.892-1.219,1.081s-.328.38-.445.571h4.213,0Z"/>
    </g>
  </g>
  <g class="st6">
    <g class="st6">
      <path class="st0" d="M1538.974,65.405l1.055-.141c.121.598.327,1.028.618,1.292s.646.396,1.063.396c.496,0,.915-.172,1.257-.516s.513-.77.513-1.277c0-.484-.158-.884-.475-1.198s-.719-.472-1.207-.472c-.199,0-.447.039-.744.117l.117-.926c.07.008.127.012.17.012.449,0,.854-.117,1.213-.352s.539-.596.539-1.084c0-.387-.131-.707-.393-.961s-.6-.381-1.014-.381c-.41,0-.752.129-1.025.387s-.449.645-.527,1.16l-1.055-.188c.129-.707.422-1.255.879-1.644s1.025-.583,1.705-.583c.469,0,.9.101,1.295.302.395.201.696.476.905.823s.313.717.313,1.107c0,.371-.1.709-.299,1.014s-.494.547-.885.727c.508.117.902.36,1.184.729.282.369.422.831.422,1.386,0,.75-.273,1.386-.82,1.907s-1.238.782-2.074.782c-.754,0-1.38-.225-1.878-.674s-.782-1.031-.853-1.746v.002h.001Z"/>
    </g>
  </g>
  <g class="st6">
    <g class="st6">
      <path class="st0" d="M1552.609,67.673v-2.057h-3.727v-.967l3.92-5.566h.861v5.566h1.16v.967h-1.16v2.057h-1.055.001ZM1552.609,64.65v-3.873l-2.689,3.873h2.689Z"/>
    </g>
  </g>
  <circle id="jog_x5F_R" class="st1" cx="1298.27" cy="240.41" r="150"/>
  <circle id="jogwheel_x5F_center_x5F_R" class="st3" cx="1298.27" cy="240.41" r="115"/>
  <rect id="hotcue_x5F_R" class="st1" x="1119.27" y="409.35" width="84" height="20" rx="6" ry="6"/>
  <rect id="pad_x5F_R_x5F_1" class="st1" x="1123.04" y="440.33" width="76.45" height="52.93"/>
  <rect id="pad_x5F_R_x5F_2" class="st1" x="1217.13" y="440.33" width="76.45" height="52.93"/>
  <rect id="pad_x5F_R_x5F_3" class="st1" x="1311.23" y="440.33" width="76.45" height="52.93"/>
  <rect id="pad_x5F_R_x5F_4" class="st1" x="1405.32" y="440.33" width="76.45" height="52.93"/>
  <rect id="pad_x5F_R_x5F_5" class="st1" x="1123.04" y="505.02" width="76.45" height="52.93"/>
  <rect id="pad_x5F_R_x5F_6" class="st1" x="1217.13" y="505.02" width="76.45" height="52.93"/>
  <rect id="pad_x5F_R_x5F_7" class="st1" x="1311.23" y="505.02" width="76.45" height="52.93"/>
  <rect id="pad_x5F_R_x5F_8" class="st1" x="1405.32" y="505.02" width="76.45" height="52.93"/>
  <g id="tempo_x5F_R">
    <path id="tempo_R" class="st3" d="M1528.96,400.1h0c3.87,0,7,3.13,7,7v146c0,3.87-3.13,7-7,7h0c-3.87,0-7-3.13-7-7v-146c0-3.87,3.13-7,7-7h0Z"/>
    <rect id="slider_TEMPO_R" class="st1" x="1517.96" y="470.1" width="22" height="26" rx="6" ry="6"/>
  </g>
  <circle id="loop_x5F_in_x5F_r" class="st1" cx="1064.27" cy="60.25" r="16"/>
  <circle id="loop_x5F_out_x5F_R" class="st1" cx="1122.27" cy="60.25" r="16"/>
  <circle id="select_x5F_loop_x5F_call_x5F_LR" class="st1" cx="1285.28" cy="56.96" r="12"/>
  <circle id="select_x5F_loop_x5F_call_x5F_RR" class="st1" cx="1339.28" cy="56.96" r="12"/>
  <circle id="loop_x5F_memory_x5F_R" class="st1" cx="1390.28" cy="56.96" r="12"/>
  <circle id="jogcut_x5F_R" class="st1" cx="1161.27" cy="120.39" r="16"/>
  <circle id="decks_x5F_R" class="st1" cx="1119.27" cy="200.03" r="16"/>
  <rect id="sampler_x5F_R" class="st1" x="1401.54" y="409.35" width="84" height="20" rx="6" ry="6"/>
  <rect id="beatjump_x5F_R" class="st1" x="1307.45" y="408.57" width="84" height="20" rx="6" ry="6"/>
  <rect id="padfx_x5F_R" class="st1" x="1213.36" y="409.35" width="84" height="20" rx="6" ry="6"/>
  <circle id="play_x5F_R" class="st1" cx="1068.27" cy="453.27" r="34.77"/>
  <circle id="cue_x5F_R" class="st1" cx="1068.27" cy="531.02" r="34.77"/>
  <circle id="beatsync_x5F_R" class="st1" cx="1505.96" cy="375.75" r="12"/>
  <circle id="master_x5F_R" class="st1" cx="1551.96" cy="375.75" r="12"/>
  <circle id="shift_x5F_R" class="st1" cx="1106.27" cy="370.03" r="16"/>
  <path id="merge_x5F_button_x5F_R" class="st1" d="M1475.95,58.233h25.47c3.31,0,6,2.69,6,6h0c0,3.31-2.69,6-6,6h-25.47c-3.31,0-6-2.69-6-6h0c0-3.31,2.69-6,6-6Z"/>
  <g class="st6">
    <g class="st6">
      <path class="st0" d="M1516.422,578.18v-7.576h-2.83v-1.014h6.809v1.014h-2.842v7.576h-1.137Z"/>
      <path class="st0" d="M1521.59,578.18v-8.59h6.211v1.014h-5.074v2.631h4.752v1.008h-4.752v2.924h5.273v1.014h-6.41Z"/>
      <path class="st0" d="M1529.535,578.18v-8.59h1.711l2.033,6.082c.188.566.324.99.41,1.271.098-.312.25-.771.457-1.377l2.057-5.977h1.529v8.59h-1.096v-7.189l-2.496,7.189h-1.025l-2.484-7.312v7.312h-1.096Z"/>
      <path class="st0" d="M1539.566,578.18v-8.59h3.24c.57,0,1.006.027,1.307.082.422.07.775.204,1.061.401s.514.474.688.829.262.746.262,1.172c0,.73-.232,1.349-.697,1.854s-1.305.759-2.52.759h-2.203v3.492h-1.138ZM1540.703,573.674h2.221c.734,0,1.256-.137,1.564-.41s.463-.658.463-1.154c0-.359-.092-.667-.273-.923s-.42-.425-.717-.507c-.191-.051-.545-.076-1.061-.076h-2.197v3.07h0Z"/>
      <path class="st0" d="M1547.225,573.996c0-1.426.383-2.542,1.148-3.349s1.754-1.21,2.965-1.21c.793,0,1.508.189,2.145.568s1.121.907,1.455,1.585.502,1.446.502,2.306c0,.871-.176,1.65-.527,2.338s-.85,1.208-1.494,1.562-1.34.53-2.086.53c-.809,0-1.531-.195-2.168-.586s-1.119-.924-1.447-1.6-.492-1.391-.492-2.145h0ZM1548.396,574.014c0,1.035.277,1.851.834,2.446s1.256.894,2.096.894c.855,0,1.559-.301,2.111-.902s.83-1.455.83-2.561c0-.699-.119-1.31-.355-1.831s-.582-.926-1.037-1.213-.965-.431-1.531-.431c-.805,0-1.498.276-2.078.829s-.869,1.476-.869,2.769h0Z"/>
    </g>
  </g>
  <g class="st6">
    <g class="st6">
      <path class="st0" d="M48.456,458.78v-8.59h3.24c.57,0,1.006.027,1.307.082.422.07.775.204,1.061.401s.515.474.688.829.261.746.261,1.172c0,.73-.232,1.349-.697,1.854s-1.305.759-2.52.759h-2.203v3.492h-1.137ZM49.592,454.274h2.221c.734,0,1.256-.137,1.564-.41s.463-.658.463-1.154c0-.359-.091-.667-.272-.923s-.421-.425-.718-.507c-.191-.051-.545-.076-1.061-.076h-2.197v3.07h0Z"/>
      <path class="st0" d="M56.413,458.78v-8.59h1.137v7.576h4.23v1.014h-5.367Z"/>
      <path class="st0" d="M62.19,458.78l3.299-8.59h1.225l3.516,8.59h-1.295l-1.002-2.602h-3.592l-.943,2.602s-1.208,0-1.208,0ZM64.668,455.253h2.912l-.896-2.379c-.273-.723-.477-1.316-.609-1.781-.109.551-.264,1.098-.463,1.641l-.943,2.52h0Z"/>
      <path class="st0" d="M72.667,458.78v-3.639l-3.311-4.951h1.383l1.693,2.59c.312.484.604.969.873,1.453.258-.449.57-.955.938-1.518l1.664-2.525h1.324l-3.428,4.951v3.639h-1.137,0Z"/>
    </g>
  </g>
  <g class="st6">
    <g class="st6">
      <path class="st0" d="M1052.726,456.79v-8.59h3.24c.57,0,1.006.027,1.307.082.422.07.775.204,1.061.401s.515.474.688.829.261.746.261,1.172c0,.73-.232,1.349-.697,1.854s-1.305.759-2.52.759h-2.203v3.492h-1.137ZM1053.862,452.284h2.221c.734,0,1.256-.137,1.564-.41s.463-.658.463-1.154c0-.359-.091-.667-.272-.923s-.421-.425-.718-.507c-.191-.051-.545-.076-1.061-.076h-2.197v3.07h0Z"/>
      <path class="st0" d="M1060.683,456.79v-8.59h1.137v7.576h4.23v1.014h-5.367Z"/>
      <path class="st0" d="M1066.46,456.79l3.299-8.59h1.225l3.516,8.59h-1.295l-1.002-2.602h-3.592l-.943,2.602h-1.208,0ZM1068.938,453.263h2.912l-.896-2.379c-.273-.723-.477-1.316-.609-1.781-.109.551-.264,1.098-.463,1.641l-.943,2.52h0Z"/>
      <path class="st0" d="M1076.937,456.79v-3.639l-3.311-4.951h1.383l1.693,2.59c.312.484.604.969.873,1.453.258-.449.57-.955.938-1.518l1.664-2.525h1.324l-3.428,4.951v3.639h-1.137,0Z"/>
    </g>
  </g>
  <g class="st6">
    <g class="st6">
      <path class="st0" d="M1065.595,532.548l1.137.287c-.238.934-.667,1.646-1.286,2.136s-1.376.735-2.271.735c-.926,0-1.679-.188-2.259-.565s-1.021-.923-1.324-1.638-.454-1.482-.454-2.303c0-.895.171-1.675.513-2.341s.828-1.172,1.459-1.518,1.325-.519,2.083-.519c.859,0,1.582.219,2.168.656s.994,1.053,1.225,1.846l-1.119.264c-.199-.625-.488-1.08-.867-1.365s-.855-.428-1.43-.428c-.66,0-1.212.158-1.655.475s-.755.741-.935,1.274-.27,1.083-.27,1.649c0,.73.106,1.368.319,1.913s.544.952.993,1.222.936.404,1.459.404c.637,0,1.176-.184,1.617-.551s.74-.912.896-1.635v.002h.001Z"/>
      <path class="st0" d="M1073.769,526.97h1.137v4.963c0,.863-.098,1.549-.293,2.057s-.548.921-1.058,1.239-1.179.478-2.007.478c-.805,0-1.463-.139-1.975-.416s-.877-.679-1.096-1.204-.328-1.243-.328-2.153v-4.963h1.137v4.957c0,.746.069,1.296.208,1.649s.377.626.715.817.751.287,1.239.287c.836,0,1.432-.189,1.787-.568s.533-1.107.533-2.186v-4.957h0Z"/>
      <path class="st0" d="M1076.821,535.56v-8.59h6.211v1.014h-5.074v2.631h4.752v1.008h-4.752v2.924h5.273v1.014h-6.41Z"/>
    </g>
  </g>
  <g class="st6">
    <g class="st6">
      <path class="st0" d="M61.575,532.548l1.137.287c-.238.934-.667,1.646-1.286,2.136s-1.376.735-2.271.735c-.926,0-1.679-.188-2.259-.565s-1.021-.923-1.324-1.638-.454-1.482-.454-2.303c0-.895.171-1.675.513-2.341s.828-1.172,1.459-1.518,1.325-.519,2.083-.519c.859,0,1.582.219,2.168.656s.994,1.053,1.225,1.846l-1.119.264c-.199-.625-.488-1.08-.867-1.365s-.855-.428-1.43-.428c-.66,0-1.212.158-1.655.475s-.755.741-.935,1.274-.27,1.083-.27,1.649c0,.73.106,1.368.319,1.913s.544.952.993,1.222.936.404,1.459.404c.637,0,1.176-.184,1.617-.551s.74-.912.896-1.635v.002h0Z"/>
      <path class="st0" d="M69.749,526.97h1.137v4.963c0,.863-.098,1.549-.293,2.057s-.548.921-1.058,1.239-1.179.478-2.007.478c-.805,0-1.463-.139-1.975-.416s-.877-.679-1.096-1.204-.328-1.243-.328-2.153v-4.963h1.137v4.957c0,.746.069,1.296.208,1.649s.377.626.715.817.751.287,1.239.287c.836,0,1.432-.189,1.787-.568s.533-1.107.533-2.186v-4.957h.001Z"/>
      <path class="st0" d="M72.801,535.56v-8.59h6.211v1.014h-5.074v2.631h4.752v1.008h-4.752v2.924h5.273v1.014h-6.41Z"/>
    </g>
  </g>
  <g class="st6">
    <g class="st6">
      <path class="st0" d="M1277.306,242.993l1.025-.141c.027.656.15,1.105.369,1.348s.521.363.908.363c.285,0,.531-.065.738-.196s.35-.309.428-.533.117-.583.117-1.075v-5.918h1.137v5.854c0,.719-.087,1.275-.261,1.67s-.449.695-.826.902-.819.311-1.327.311c-.754,0-1.331-.217-1.731-.65s-.593-1.078-.577-1.934h0Z"/>
      <path class="st0" d="M1283.54,241.247c0-1.426.383-2.542,1.148-3.349s1.754-1.21,2.965-1.21c.793,0,1.508.189,2.145.568s1.122.907,1.456,1.585.501,1.446.501,2.306c0,.871-.176,1.65-.527,2.338s-.85,1.208-1.494,1.562-1.34.53-2.086.53c-.809,0-1.531-.195-2.168-.586s-1.119-.924-1.447-1.6-.492-1.391-.492-2.145h0ZM1284.712,241.264c0,1.035.278,1.851.835,2.446s1.255.894,2.095.894c.855,0,1.56-.301,2.112-.902s.829-1.455.829-2.561c0-.699-.118-1.31-.354-1.831s-.582-.926-1.037-1.213-.966-.431-1.532-.431c-.805,0-1.497.276-2.077.829s-.87,1.476-.87,2.769h0Z"/>
      <path class="st0" d="M1297.239,242.061v-1.008l3.639-.006v3.188c-.559.445-1.135.78-1.729,1.005s-1.203.337-1.828.337c-.844,0-1.61-.181-2.3-.542s-1.21-.884-1.562-1.567-.527-1.447-.527-2.291c0-.836.175-1.616.524-2.341s.853-1.263,1.509-1.614,1.412-.527,2.268-.527c.621,0,1.183.101,1.685.302s.896.481,1.181.841.502.828.65,1.406l-1.025.281c-.129-.438-.289-.781-.48-1.031s-.465-.45-.82-.601-.75-.226-1.184-.226c-.52,0-.969.079-1.348.237s-.685.366-.917.624-.413.541-.542.85c-.219.531-.328,1.107-.328,1.729,0,.766.132,1.406.396,1.922s.647.898,1.151,1.148,1.039.375,1.605.375c.492,0,.973-.095,1.441-.284s.824-.392,1.066-.606v-1.6h-2.525Z"/>
    </g>
  </g>
  <g class="st6">
    <g class="st6">
      <path class="st0" d="M1302.463,245.43v-8.59h3.809c.766,0,1.348.077,1.746.231s.717.427.955.817.357.822.357,1.295c0,.609-.197,1.123-.592,1.541s-1.004.684-1.828.797c.301.145.529.287.686.428.332.305.646.686.943,1.143l1.494,2.338h-1.43l-1.137-1.787c-.332-.516-.605-.91-.82-1.184s-.406-.465-.576-.574-.344-.186-.52-.229c-.129-.027-.34-.041-.633-.041h-1.318v3.814h-1.137.001ZM1303.6,240.631h2.443c.52,0,.926-.054,1.219-.161s.516-.279.668-.516.229-.493.229-.771c0-.406-.146-.74-.441-1.002s-.762-.393-1.398-.393h-2.719v2.842h0Z"/>
    </g>
  </g>
  <g class="st6">
    <g class="st6">
      <path class="st0" d="M882.169,479.85v-2.057h-3.727v-.967l3.92-5.566h.861v5.566h1.16v.967h-1.16v2.057h-1.055,0ZM882.169,476.826v-3.873l-2.689,3.873h2.689Z"/>
    </g>
  </g>
  <g class="st6">
    <g class="st6">
      <path class="st0" d="M1381.436,100.14v-8.59h2.959c.668,0,1.178.041,1.529.123.492.113.912.318,1.26.615.453.383.792.872,1.017,1.468s.337,1.276.337,2.042c0,.652-.076,1.23-.229,1.734s-.348.921-.586,1.251-.499.59-.782.779-.625.333-1.025.431-.86.146-1.38.146h-3.1ZM1382.572,99.126h1.834c.566,0,1.011-.053,1.333-.158s.579-.254.771-.445c.27-.27.479-.632.63-1.087s.226-1.007.226-1.655c0-.898-.147-1.589-.442-2.071s-.653-.806-1.075-.97c-.305-.117-.795-.176-1.471-.176h-1.805v6.562h0Z"/>
      <path class="st0" d="M1390.125,100.14v-8.59h6.211v1.014h-5.074v2.631h4.752v1.008h-4.752v2.924h5.273v1.014h-6.41Z"/>
      <path class="st0" d="M1404.234,97.128l1.137.287c-.238.934-.667,1.646-1.286,2.136s-1.376.735-2.271.735c-.926,0-1.679-.188-2.259-.565s-1.021-.923-1.324-1.638-.454-1.482-.454-2.303c0-.895.171-1.675.513-2.341s.828-1.172,1.459-1.518,1.325-.519,2.083-.519c.859,0,1.582.219,2.168.656s.994,1.053,1.225,1.846l-1.119.264c-.199-.625-.488-1.08-.867-1.365s-.855-.428-1.43-.428c-.66,0-1.212.158-1.655.475s-.755.741-.935,1.274-.27,1.083-.27,1.649c0,.73.106,1.368.319,1.913s.544.952.993,1.222.936.404,1.459.404c.637,0,1.176-.184,1.617-.551s.74-.912.896-1.635v.002h.001Z"/>
      <path class="st0" d="M1406.725,100.14v-8.59h1.137v4.26l4.266-4.26h1.541l-3.604,3.48,3.762,5.109h-1.5l-3.059-4.348-1.406,1.371v2.977h-1.137Z"/>
    </g>
  </g>
  <g id="low_x5F_1">
    <circle id="low_x5F_1_x5F_1" class="st1" cx="696.76" cy="194.78" r="10"/>
    <path id="low_x5F_Knob_x5F_1" class="st1" d="M696.76,179.78h0c2.761,0,5,2.239,5,5h0c0,2.761-2.239,5-5,5h0c-2.761,0-5-2.239-5-5h0c0-2.761,2.239-5,5-5Z"/>
  </g>
  <g id="mid_x5F_1">
    <circle id="mid_x5F_1_x5F_1" class="st1" cx="696.76" cy="156.78" r="10"/>
    <path id="mid_x5F_Knob_x5F_1" class="st1" d="M696.76,143.131h0c2.761,0,5,2.239,5,5h0c0,2.761-2.239,5-5,5h0c-2.761,0-5-2.239-5-5h0c0-2.761,2.239-5,5-5Z"/>
  </g>
  <g id="hi_x5F_1">
    <circle id="hi_x5F_1_x5F_1" class="st1" cx="696.76" cy="118.78" r="10"/>
    <path id="hi_x5F_Knob_x5F_1" class="st1" d="M696.76,105.185h0c2.761,0,5,2.239,5,5h0c0,2.761-2.239,5-5,5h0c-2.761,0-5-2.239-5-5h0c0-2.761,2.239-5,5-5Z"/>
  </g>
  <g id="low_x5F_2">
    <circle id="low_x5F_2_x5F_1" class="st1" cx="785.29" cy="194.78" r="10"/>
    <path id="low_x5F_Knob_x5F_2" class="st1" d="M785.29,181.478h0c2.761,0,5,2.239,5,5h0c0,2.761-2.239,5-5,5h0c-2.761,0-5-2.239-5-5h0c0-2.761,2.239-5,5-5Z"/>
  </g>
  <g id="mid_x5F_2">
    <circle id="mid_x5F_2_x5F_1" class="st1" cx="785.29" cy="156.78" r="10"/>
    <path id="mid_x5F_Knob_x5F_2" class="st1" d="M785.29,143.019h0c2.761,0,5,2.239,5,5h0c0,2.761-2.239,5-5,5h0c-2.761,0-5-2.239-5-5h0c0-2.761,2.239-5,5-5Z"/>
  </g>
  <g id="hi_x5F_2">
    <circle id="hi_x5F_2_x5F_1" class="st1" cx="785.29" cy="118.78" r="10"/>
    <path id="hi_x5F_Knob_x5F_2" class="st1" d="M785.29,106.347h0c2.761,0,5,2.239,5,5h0c0,2.761-2.239,5-5,5h0c-2.761,0-5-2.239-5-5h0c0-2.761,2.239-5,5-5Z"/>
  </g>
  <g id="low_x5F_3">
    <circle id="low_x5F_3_x5F_1" class="st1" cx="606.84" cy="193.78" r="10"/>
    <path id="low_x5F_knob_x5F_3" class="st1" d="M606.84,178.78h0c2.761,0,5,2.239,5,5h0c0,2.761-2.239,5-5,5h0c-2.761,0-5-2.239-5-5h0c0-2.761,2.239-5,5-5Z"/>
  </g>
  <g id="filter_x5F_3">
    <circle id="filter_x5F_3_x5F_1" class="st1" cx="606.84" cy="231.78" r="10"/>
    <path id="filter_x5F_knob_x5F_3" class="st1" d="M606.84,217.28h0c2.761,0,5,2.239,5,5h0c0,2.761-2.239,5-5,5h0c-2.761,0-5-2.239-5-5h0c0-2.761,2.239-5,5-5Z"/>
  </g>
  <g id="filter_x5F_1">
    <circle id="filter_x5F_1_x5F_1" class="st1" cx="696.76" cy="232.78" r="10"/>
    <path id="filter_x5F_knob_x5F_1" class="st1" d="M696.76,218.28h0c2.761,0,5,2.239,5,5h0c0,2.761-2.239,5-5,5h0c-2.761,0-5-2.239-5-5h0c0-2.761,2.239-5,5-5Z"/>
  </g>
  <g id="filter_x5F_2">
    <circle id="filter_x5F_2_x5F_1" class="st1" cx="785.29" cy="232.78" r="10"/>
    <path id="filter_x5F_knob_x5F_2" class="st1" d="M785.29,218.28h0c2.761,0,5,2.239,5,5h0c0,2.761-2.239,5-5,5h0c-2.761,0-5-2.239-5-5h0c0-2.761,2.239-5,5-5Z"/>
  </g>
  <g id="filter_x5F_4">
    <circle id="filter_x5F_4_x5F_1" class="st1" cx="878.29" cy="232.78" r="10"/>
    <path id="filter_x5F_knob_x5F_4" class="st1" d="M878.29,218.28h0c2.761,0,5,2.239,5,5h0c0,2.761-2.239,5-5,5h0c-2.761,0-5-2.239-5-5h0c0-2.761,2.239-5,5-5Z"/>
  </g>
  <g id="trim_x5F_4">
    <circle id="trim_x5F_4_x5F_1" class="st1" cx="878.29" cy="78.78" r="12"/>
    <path id="trim_x5F_knob_x5F_4" class="st1" d="M878.29,63.59h0c2.761,0,5,2.239,5,5h0c0,2.761-2.239,5-5,5h0c-2.761,0-5-2.239-5-5h0c0-2.761,2.239-5,5-5Z"/>
  </g>
  <g id="trim_x5F_3">
    <circle id="trim_x5F_3_x5F_1" class="st1" cx="606.84" cy="77.78" r="12"/>
    <path id="trim_x5F_knob_x5F_3" class="st1" d="M606.84,63.59h0c2.761,0,5,2.239,5,5h0c0,2.761-2.239,5-5,5h0c-2.761,0-5-2.239-5-5h0c0-2.761,2.239-5,5-5Z"/>
  </g>
  <g id="trim_x5F_2">
    <circle id="trim_x5F_2_x5F_1" class="st1" cx="785.29" cy="78.78" r="12"/>
    <path id="trim_x5F_knob_x5F_2" class="st1" d="M785.29,64.305h0c2.761,0,5,2.239,5,5h0c0,2.761-2.239,5-5,5h0c-2.761,0-5-2.239-5-5h0c0-2.761,2.239-5,5-5Z"/>
  </g>
  <g id="trim_x5F_1">
    <circle id="trim_x5F_1_x5F_1" class="st1" cx="696.76" cy="78.78" r="12"/>
    <path id="trim_x5F_knob_x5F_1" class="st1" d="M696.76,63.59h0c2.761,0,5,2.239,5,5h0c0,2.761-2.239,5-5,5h0c-2.761,0-5-2.239-5-5h0c0-2.761,2.239-5,5-5Z"/>
  </g>
  <g id="mid_x5F_3">
    <circle id="mid_x5F_3_x5F_1" class="st1" cx="606.84" cy="155.78" r="10"/>
    <path id="mid_x5F_Knob_x5F_3" class="st1" d="M606.84,141.78h0c2.761,0,5,2.239,5,5h0c0,2.761-2.239,5-5,5h0c-2.761,0-5-2.239-5-5h0c0-2.761,2.239-5,5-5Z"/>
  </g>
  <g id="hi_x5F_3">
    <circle id="hi_x5F_3_x5F_1" class="st1" cx="606.84" cy="117.78" r="10"/>
    <path id="hi_x5F_Knob_x5F_3" class="st1" d="M606.84,105.185h0c2.761,0,5,2.239,5,5h0c0,2.761-2.239,5-5,5h0c-2.761,0-5-2.239-5-5h0c0-2.761,2.239-5,5-5Z"/>
  </g>
  <g id="low_x5F_4">
    <circle id="low_x5F_4_x5F_1" class="st1" cx="878.29" cy="194.78" r="10"/>
    <path id="low_x5F_Knob_x5F_4" class="st1" d="M878.29,179.78h0c2.761,0,5,2.239,5,5h0c0,2.761-2.239,5-5,5h0c-2.761,0-5-2.239-5-5h0c0-2.761,2.239-5,5-5Z"/>
  </g>
  <g id="mid_x5F_4">
    <circle id="mid_x5F_4_x5F_1" class="st1" cx="878.29" cy="156.78" r="10"/>
    <path id="mid_x5F_Knob_x5F_4" class="st1" d="M878.29,143.131h0c2.761,0,5,2.239,5,5h0c0,2.761-2.239,5-5,5h0c-2.761,0-5-2.239-5-5h0c0-2.761,2.239-5,5-5Z"/>
  </g>
  <g id="hi_x5F_4">
    <circle id="hi_x5F_4_x5F_1" class="st1" cx="878.29" cy="118.78" r="10"/>
    <path id="hi_x5F_Knob_x5F_4" class="st1" d="M878.29,105.185h0c2.761,0,5,2.239,5,5h0c0,2.761-2.239,5-5,5h0c-2.761,0-5-2.239-5-5h0c0-2.761,2.239-5,5-5Z"/>
  </g>
  <g id="master_x5F_level">
    <circle id="master_x5F_level_x5F_1" class="st1" cx="968.97" cy="42.59" r="12"/>
    <path id="Master_x5F_Knob" class="st1" d="M968.97,27.063h0c2.761,0,5,2.239,5,5h0c0,2.761-2.239,5-5,5h0c-2.761,0-5-2.239-5-5h0c0-2.761,2.239-5,5-5Z"/>
  </g>
  <g id="beatfx_x5F_levels_x5F_knob">
    <circle id="beatfx_x5F_levels_x5F_knob_x5F_1" class="st1" cx="968.97" cy="394.9" r="12"/>
    <path id="beatfx_x5F_levels_x5F_knob2" class="st1" d="M968.97,379.18h0c2.761,0,5,2.239,5,5h0c0,2.761-2.239,5-5,5h0c-2.761,0-5-2.239-5-5h0c0-2.761,2.239-5,5-5Z"/>
  </g>
  <g id="booth_x5F_level">
    <circle id="booth_x5F_level_x5F_1" class="st1" cx="968.97" cy="118.15" r="12"/>
    <path id="booth_x5F_level_x5F_Knob" class="st1" d="M968.97,102.067h0c2.761,0,5,2.239,5,5h0c0,2.761-2.239,5-5,5h0c-2.761,0-5-2.239-5-5h0c0-2.761,2.239-5,5-5Z"/>
  </g>
  <g id="knob_x5F_MERGEFX_x5F_L">
    <circle id="knob_x5F_MERGEFX_x5F_L_x5F_1" class="st1" cx="524.679" cy="120.119" r="42.48" transform="translate(68.738 406.186) rotate(-45)"/>
    <path id="knob_x5F_MERGEFX_x5F_L_x5F_Knob" class="st1" d="M524.679,73.78h0c2.761,0,5,2.239,5,5h0c0,2.761-2.239,5-5,5h0c-2.761,0-5-2.239-5-5h0c0-2.761,2.239-5,5-5Z"/>
  </g>
  <g id="knob_x5F_MERGEFX_x5F_R">
    <circle id="knob_x5F_MERGEFX_x5F_R_x5F_1" class="st1" cx="1528.96" cy="120.39" r="42.48"/>
    <path id="knob_x5F_MERGEFX_x5F_R_x5F_Knob" class="st1" d="M1528.96,74.96h0c2.761,0,5,2.239,5,5h0c0,2.761-2.239,5-5,5h0c-2.761,0-5-2.239-5-5h0c0-2.761,2.239-5,5-5Z"/>
  </g>
</svg>